Tiesto In Concert Director's Cut Mkv 1080p Ac3 448 Kbps


The introduction above by MC Stretch almost says it all.
Back in 2003, Tiësto was the first DJ to hold a solo concert in a stadium; on May 10th he performed for 25.000 people in Arnhem’s GelreDome.
Originally shot in High Definition, but never released as such to the public, this 2012 reissue will make you relive Tiësto’s groundbreaking concert once again with improved image and sound. Essential!

Tracklist:

01. Tiësto - Magik Journey (Intro)
02. Tiësto - Adagio For Strings
03. Ernesto & Bastian - Who’s The Starter?
04. Skin - Faithfullness (Tiësto Remix)
05. Andain - Beautiful Things (featuring Mavie Marcos)
06. Brotherhood - Samba In The Hood
07. Cave - Carnival
08. Roc Project featuring Tina Arena - Never (Filterheadz Luv Tina Remix)
09. David Forbes - Answers
10. Mojado featuring Mr. Sam - Naranja (Dimitri Andreas Vision)
11. Salt Tank - Eugina (Michael Woods Remix)
12. Kane - Rain Down On Me (Tiësto Remix) (featuring Dinand Woesthoff)
13. Traditional - The Star Spangled Banner
14. Hampshire & Nysse present Nikita - Eternal Voices (Tiësto Alternative Breaks Mix)
15. Scott Bond vs. Solarstone - 3rd Earth
16. Fictivision vs. C-Quence - Symbols
17. Max Walder - Crown
18. F. Massif - Understatement
19. Conjure One - Tears From The Moon (Tiësto Remix)
20. Tiësto - Traffic
21. Orange Studio's - Tiësto In Concert Asia
22. Coast 2 Coast - Searching (Coast 2 Coast Mix)
23. Solar Factor - Urban Shakedown
24. Freefall - Skydive (featuring Jan Johnston)
25. Literon/Speedy J - Collabs 200: Snacker
26. DJ Tiësto - Lethal Industry
27. Mark Norman - Rush
28. Omar Ka & Fula Band - Dimel/Koode Nyaari
29. DJ Tiësto - Theme From Norefjell (DJ Jan & Christophe Chantzis Mix)
30. Riley & Durrant - Candesco
31. Tiësto - Nyana
32. Saltwater - The Legacy (Alphazone Remix)
33. DJ Ton T.B. - Electronic Malfunction
34. DJ Tiësto - Flight 643
35. Armani & Ghost - Airport
36. De Jonge & Beijerink - Didjerrydoo
37. Tiësto vs. Junkie XL - Obsession (Frank Biazzi Mix)
38. Ralph Fridge - Man On Mars
39. DJ Tiësto - Suburban Train

General
Unique ID : 193740772460319949384352185366651954420 (0x91C11D9242A035DABF79C6A4768164F4)
Tiesto In Concert Director's Cut Mkv 1080p Ac3 448 Kbps.mkv
Format : Matroska
Format version : Version 2
File size : 7.68 GiB
Duration : 3h 29mn
Overall bit rate mode : Variable
Overall bit rate : 5 259 Kbps
Movie name : Tiesto In Concert Director's Cut Mkv 1080p Ac3 448 Kbps
Encoded date : UTC 2012-12-29 06:44:23
Writing application : mkvmerge v5.7.0 ('The Whirlwind') built on Jul 8 2012 20:08:51
Writing library : libebml v1.2.3 + libmatroska v1.3.0

Video
ID : 1
Format : AVC
Format/Info : Advanced Video Codec
Format profile : High@L4.0
Format settings, CABAC : Yes
Format settings, ReFrames : 3 frames
Codec ID : V_MPEG4/ISO/AVC
Duration : 3h 29mn
Bit rate mode : Variable
Bit rate : 4 706 Kbps
Maximum bit rate : 25.0 Mbps
Width : 1 920 pixels
Height : 1 080 pixels
Display aspect ratio : 16:9
Frame rate mode : Constant
Frame rate : 25.000 fps
Color space : YUV
Chroma subsampling : 4:2:0
Bit depth : 8 bits
Scan type : Progressive
Bits/(Pixel*Frame) : 0.091
Stream size : 6.87 GiB (89%)
Writing library : x264 core 125 r2208 d9d2288
Encoding settings : cabac=1 / ref=3 / deblock=1:0:0 / analyse=0x3:0x113 / me=hex / subme=7 / psy=1 / psy_rd=1.00:0.00 / mixed_ref=1 / me_range=16 / chroma_me=1 / trellis=1 / 8x8dct=1 / cqm=0 / deadzone=21,11 / fast_pskip=1 / chroma_qp_offset=-2 / threads=12 / lookahead_threads=2 / sliced_threads=0 / nr=0 / decimate=1 / interlaced=0 / bluray_compat=0 / constrained_intra=0 / bframes=3 / b_pyramid=0 / b_adapt=1 / b_bias=0 / direct=1 / weightb=1 / open_gop=0 / weightp=2 / keyint=250 / keyint_min=25 / scenecut=40 / intra_refresh=0 / rc_lookahead=40 / rc=crf / mbtree=1 / crf=24.0 / qcomp=0.60 / qpmin=0 / qpmax=69 / qpstep=4 / vbv_maxrate=25000 / vbv_bufsize=25000 / crf_max=0.0 / nal_hrd=vbr / ip_ratio=1.40 / aq=1:1.00
Default : Yes
Forced : No

Audio
ID : 2
Format : AC-3
Format/Info : Audio Coding 3
Mode extension : CM (complete main)
Format settings, Endianness : Big
Codec ID : A_AC3
Duration : 3h 29mn
Bit rate mode : Constant
Bit rate : 448 Kbps
Channel(s) : 6 channels
Channel positions : Front: L C R, Side: L R, LFE
Sampling rate : 48.0 KHz
Bit depth : 16 bits
Compression mode : Lossy
Stream size : 670 MiB (9%)
Language : English
Default : Yes
Forced : No

